<?xml version="1.0" encoding="utf-8"?>
<!-- Generator: Adobe Illustrator 15.0.0, SVG Export Plug-In . SVG Version: 6.00 Build 0)  -->
<!DOCTYPE svg PUBLIC "-//W3C//DTD SVG 1.1//EN" "http://www.w3.org/Graphics/SVG/1.1/DTD/svg11.dtd">
<svg version="1.1" id="Layer_1" xmlns="http://www.w3.org/2000/svg" xmlns:xlink="http://www.w3.org/1999/xlink" x="0px" y="0px"
	 width="19.801px" height="20.005px" viewBox="0 0 19.801 20.005" enable-background="new 0 0 19.801 20.005" xml:space="preserve">
<path fill-rule="evenodd" clip-rule="evenodd" fill="#FFFFFF" d="M19.801,17.505v1.25c0,0.691-0.554,1.25-1.237,1.25h-1.237l0,0
	H2.475l0,0H1.237c-0.684,0-1.237-0.56-1.237-1.25v-3.75v0V6.252v0V1.25C0,0.56,0.554,0,1.237,0h4.95l0,0h7.425
	c0.001,0,0.001,0,0.001,0h4.95c0.684,0,1.237,0.56,1.237,1.25V2.5c0,0,0,0,0,0V17.505C19.801,17.504,19.801,17.504,19.801,17.505z
	 M9.9,7.502c-2.279,0-2.476,2.501-2.476,2.501s-0.071,2.5,2.476,2.5s2.475-2.5,2.475-2.5S12.18,7.502,9.9,7.502z M17.326,2.5h-3.713
	v3.751h3.713V2.5z M17.326,10.003C17.326,10.003,17.326,10.003,17.326,10.003V8.752h-2.476l0,0h-0.175
	c0.103,0.402,0.175,0.816,0.175,1.25v0.001l0,0l0,0c0,2.762-2.216,5.001-4.95,5.001s-4.95-2.239-4.95-5.001
	c0-0.435,0.071-0.849,0.175-1.251H4.95l0,0H2.475v8.752H4.95h1.237l0,0h7.426l0,0h3.713v-3.751l0,0V10.003z"/>
</svg>
